# xmcd
#
# Track frame offsets:
#	150
#	5945
#	20542
#	35890
#	52588
#	72875
#	94210
#	110122
#	132778
#	152857
#	169355
#	190810
#	225038
#	250479
#
# Disc length: 3347 seconds
#
# Revision: 1
# Processed by: cddbd v1.5.2PL0 Copyright (c) Steve Scherf et al.
# Submitted via: EasyCDDAExtractor 11.0.2.1
#
DISCID=bc0d110e
DTITLE=Common - Finding Forever
DYEAR=2007
DGENRE=Hip-Hop
TTITLE0=Intro
TTITLE1=Start The Show
TTITLE2=The People Ft. Dwele
TTITLE3=Drivin' Me Wild Ft. Lily Allen
TTITLE4=I Want You Ft. Will.I.Am
TTITLE5=South Side Ft. Kanye West
TTITLE6=The Game Ft. Dj. Premier
TTITLE7=U, Black Maybe Ft. Bilal
TTITLE8=So Far To Go Ft. D'Angelo
TTITLE9=Break My Heart
TTITLE10=Misunderstood Ft. Bilal
TTITLE11=Forever Begins Ft. Lonnie "Pops" Lyons
TTITLE12=Play Your Cards Right Ft. Bilal
TTITLE13=Data Tract
EXTD=
EXTT0=
EXTT1=
EXTT2=
EXTT3=
EXTT4=
EXTT5=
EXTT6=
EXTT7=
EXTT8=
EXTT9=
EXTT10=
EXTT11=
EXTT12=
EXTT13=
PLAYORDER=
